<mxfile host="app.diagrams.net" agent="Mozilla/5.0 (Windows NT 10.0; Win64; x64) AppleWebKit/537.36 (KHTML, like Gecko) Chrome/131.0.0.0 Safari/537.36" version="25.0.1">
  <diagram name="Page-1" id="BuTB6Sf-v2TksXEqd0DI">
    <mxGraphModel dx="794" dy="493" grid="1" gridSize="10" guides="1" tooltips="1" connect="1" arrows="1" fold="1" page="1" pageScale="1" pageWidth="827" pageHeight="1169" math="0" shadow="0">
      <root>
        <mxCell id="0" />
        <mxCell id="1" parent="0" />
        <mxCell id="EWXfVk2Fa5UILSTVMiVK-7" value="" style="edgeStyle=orthogonalEdgeStyle;rounded=0;orthogonalLoop=1;jettySize=auto;html=1;" edge="1" parent="1" source="EWXfVk2Fa5UILSTVMiVK-1" target="EWXfVk2Fa5UILSTVMiVK-3">
          <mxGeometry relative="1" as="geometry" />
        </mxCell>
        <mxCell id="EWXfVk2Fa5UILSTVMiVK-1" value="start" style="ellipse;whiteSpace=wrap;html=1;" vertex="1" parent="1">
          <mxGeometry x="300" y="40" width="120" height="40" as="geometry" />
        </mxCell>
        <mxCell id="EWXfVk2Fa5UILSTVMiVK-2" value="accept input&lt;div&gt;x&amp;amp;y&lt;/div&gt;" style="shape=parallelogram;perimeter=parallelogramPerimeter;whiteSpace=wrap;html=1;fixedSize=1;" vertex="1" parent="1">
          <mxGeometry x="300" y="110" width="120" height="40" as="geometry" />
        </mxCell>
        <mxCell id="EWXfVk2Fa5UILSTVMiVK-8" value="" style="edgeStyle=orthogonalEdgeStyle;rounded=0;orthogonalLoop=1;jettySize=auto;html=1;" edge="1" parent="1" source="EWXfVk2Fa5UILSTVMiVK-3" target="EWXfVk2Fa5UILSTVMiVK-4">
          <mxGeometry relative="1" as="geometry" />
        </mxCell>
        <mxCell id="EWXfVk2Fa5UILSTVMiVK-3" value="calculate&lt;div&gt;x^y&lt;/div&gt;" style="rounded=0;whiteSpace=wrap;html=1;" vertex="1" parent="1">
          <mxGeometry x="300" y="190" width="120" height="60" as="geometry" />
        </mxCell>
        <mxCell id="EWXfVk2Fa5UILSTVMiVK-9" value="" style="edgeStyle=orthogonalEdgeStyle;rounded=0;orthogonalLoop=1;jettySize=auto;html=1;" edge="1" parent="1" source="EWXfVk2Fa5UILSTVMiVK-4" target="EWXfVk2Fa5UILSTVMiVK-6">
          <mxGeometry relative="1" as="geometry" />
        </mxCell>
        <mxCell id="EWXfVk2Fa5UILSTVMiVK-4" value="print the output" style="shape=parallelogram;perimeter=parallelogramPerimeter;whiteSpace=wrap;html=1;fixedSize=1;" vertex="1" parent="1">
          <mxGeometry x="300" y="280" width="120" height="50" as="geometry" />
        </mxCell>
        <mxCell id="EWXfVk2Fa5UILSTVMiVK-6" value="end" style="ellipse;whiteSpace=wrap;html=1;" vertex="1" parent="1">
          <mxGeometry x="300" y="380" width="120" height="40" as="geometry" />
        </mxCell>
        <mxCell id="EWXfVk2Fa5UILSTVMiVK-11" value="" style="strokeWidth=2;html=1;shape=mxgraph.flowchart.annotation_2;align=left;labelPosition=right;pointerEvents=1;" vertex="1" parent="1">
          <mxGeometry x="510" y="100" width="50" height="50" as="geometry" />
        </mxCell>
        <mxCell id="EWXfVk2Fa5UILSTVMiVK-14" value="accept and read the inputs&lt;div&gt;exponent and base(x&amp;amp;y)&lt;/div&gt;" style="text;html=1;align=center;verticalAlign=middle;resizable=0;points=[];autosize=1;strokeColor=none;fillColor=none;" vertex="1" parent="1">
          <mxGeometry x="550" y="105" width="160" height="40" as="geometry" />
        </mxCell>
      </root>
    </mxGraphModel>
  </diagram>
</mxfile>
